Coordinates
version=1
nRows=26
nColumns=24
inDegrees=yes

Units are S.I. units (second, meters, Newtons, ...)
Angles are in degrees.

endheader
time	pelvis_tilt	pelvis_list	pelvis_rotation	pelvis_tx	pelvis_ty	pelvis_tz	hip_flexion_r	hip_adduction_r	hip_rotation_r	knee_angle_r	ankle_angle_r	subtalar_angle_r	mtp_angle_r	hip_flexion_l	hip_adduction_l	hip_rotation_l	knee_angle_l	ankle_angle_l	subtalar_angle_l	mtp_angle_l	lumbar_extension	lumbar_bending	lumbar_rotation
      1.65000000	     -7.39526015	      1.60237533	     -2.42361741	      0.07624565	      0.94775927	      0.04824500	     -4.00639331	     -2.93288343	     -7.07285728	    -11.93987250	     11.59193749	      0.00000000	      0.00000000	     21.74199078	     -2.89984637	     -8.03628740	      1.40615974	     -0.55062810	      0.00000000	      0.00000000	      1.72687726	     -3.36560764	      5.10609823
      1.66000000	     -7.20369937	      1.87661018	     -2.78086583	      0.07758468	      0.94693962	      0.04631271	     -4.36525541	     -3.48808935	     -6.77247193	    -12.67359481	     11.69044378	      0.00000000	      0.00000000	     21.40256374	     -2.52429087	     -7.94900866	      0.72731260	     -1.03595737	      0.00000000	      0.00000000	      1.67214313	     -3.70371306	      5.21348329
      1.67000000	     -7.13079747	      1.98028838	     -3.17607192	      0.07920921	      0.94604182	      0.04425416	     -4.71025363	     -3.86335518	     -6.64927655	    -13.14002447	     11.62981041	      0.00000000	      0.00000000	     21.13198118	     -2.34890323	     -7.78381882	      0.08105295	     -1.51685056	      0.00000000	      0.00000000	      1.80874504	     -3.82204418	      5.44841271
      1.68000000	     -6.85634518	      2.48392147	     -3.74495849	      0.08089914	      0.94551548	      0.04246921	     -5.00911398	     -4.72919331	     -6.26030858	    -14.10114378	     11.79897801	      0.00000000	      0.00000000	     20.41966060	     -1.79945014	     -8.21018180	     -0.06435063	     -2.41511849	      0.00000000	      0.00000000	      1.74414593	     -4.41835884	      5.75741686
      1.69000000	     -6.74741400	      2.64478074	     -4.07078791	      0.08255678	      0.94496158	      0.04032799	     -5.25286296	     -5.19054027	     -6.05879907	    -14.82012975	     11.47712240	      0.00000000	      0.00000000	     20.03585829	     -1.56057659	     -8.22301432	     -0.52468225	     -2.92775789	      0.00000000	      0.00000000	      1.83760648	     -4.61928204	      5.81857371
      1.70000000	     -6.65289148	      2.80440079	     -4.37993674	      0.08418793	      0.94457402	      0.03817600	     -5.43075400	     -5.65897012	     -5.89922772	    -15.59991617	     11.07754462	      0.00000000	      0.00000000	     19.66389952	     -1.34824479	     -8.19945931	     -0.99121125	     -3.34711576	      0.00000000	      0.00000000	      1.93841838	     -4.82378384	      5.84947125
      1.71000000	     -6.46216630	      3.35989538	     -4.88545696	      0.08603301	      0.94452874	      0.03608947	     -5.51864420	     -6.62060699	     -5.65427290	    -16.66141839	     10.84394686	      0.00000000	      0.00000000	     18.93753992	     -0.73213099	     -8.74192427	     -0.90933361	     -3.96328326	      0.00000000	      0.00000000	      2.00971024	     -5.45982468	      6.07438635
      1.72000000	     -6.37257689	      3.46913459	     -4.99431118	      0.08754647	      0.94463393	      0.03366732	     -5.57299520	     -7.03237811	     -5.47617239	    -17.66483175	     10.15543332	      0.00000000	      0.00000000	     18.54962030	     -0.50680428	     -8.73876052	     -1.29025560	     -4.12829575	      0.00000000	      0.00000000	      2.06065749	     -5.61967997	      5.85063190
      1.73000000	     -6.18435482	      4.04713934	     -5.39562046	      0.08918327	      0.94509831	      0.03126848	     -5.47572612	     -8.05718515	     -5.34794473	    -18.95335663	      9.49192459	      0.00000000	      0.00000000	     17.92184500	      0.15835871	     -9.14736281	     -1.42873706	     -4.29677276	      0.00000000	      0.00000000	      2.08742728	     -6.26726366	      5.99843151
      1.74000000	     -6.07565379	      4.17650216	     -5.43280781	      0.09058904	      0.94575591	      0.02867395	     -5.38190724	     -8.50586514	     -5.20853202	    -20.19140429	      8.55718695	      0.00000000	      0.00000000	     17.48820663	      0.43680592	     -9.17142261	     -1.78166106	     -4.24420382	      0.00000000	      0.00000000	      2.07932890	     -6.43948458	      5.68121298
      1.75000000	     -5.90042759	      4.70696557	     -5.69176674	      0.09197588	      0.94666898	      0.02589925	     -5.08427732	     -9.50317931	     -5.15555097	    -21.71117363	      7.35493965	      0.00000000	      0.00000000	     17.00173467	      1.11572983	     -9.40044124	     -2.22791870	     -3.86651322	      0.00000000	      0.00000000	      2.05637473	     -7.00600119	      5.70360250
      1.76000000	     -5.73826502	      5.01388329	     -5.82970573	      0.09317015	      0.94774424	      0.02317537	     -4.72090581	    -10.22158343	     -5.01712261	    -23.34937919	      6.13043159	      0.00000000	      0.00000000	     16.52090347	      1.59908129	     -9.57206266	     -2.64735882	     -3.51234067	      0.00000000	      0.00000000	      1.97014006	     -7.34527703	      5.49367636
      1.77000000	     -5.57388733	      5.32596068	     -5.97291253	      0.09430008	      0.94894148	      0.02045250	     -4.22758013	    -10.94953537	     -4.87202271	    -25.16396617	      4.75028253	      0.00000000	      0.00000000	     16.04783382	      2.10060738	     -9.80876319	     -3.11001382	     -2.98848127	      0.00000000	      0.00000000	      1.88659584	     -7.68423608	      5.33670305
      1.78000000	     -5.39929339	      5.57049791	     -6.12916620	      0.09528192	      0.95023297	      0.01766424	     -3.60543708	    -11.62005524	     -4.64705508	    -27.14541075	      3.20239976	      0.00000000	      0.00000000	     15.56227275	      2.55330203	    -10.01661256	     -3.60115904	     -2.41554480	      0.00000000	      0.00000000	      1.75300146	     -7.92283275	      5.14935052
      1.79000000	     -5.16802523	      5.66390358	     -6.24020624	      0.09607945	      0.95161542	      0.01488684	     -2.95744062	    -12.11934501	     -4.44980306	    -29.25540389	      1.60124697	      0.00000000	      0.00000000	     14.98171747	      2.87531712	    -10.11360280	     -4.01215874	     -1.94601919	      0.00000000	      0.00000000	      1.50424866	     -7.99718237	      4.88409943
      1.80000000	     -5.00237254	      5.82236696	     -6.48393743	      0.09683469	      0.95284477	      0.01220661	     -2.08628749	    -12.69810979	     -4.07739547	    -31.48143422	     -0.03614393	      0.00000000	      0.00000000	     14.45268160	      3.25893469	    -10.50020091	     -4.38926097	     -1.25675179	      0.00000000	      0.00000000	      1.36630754	     -8.10035868	      4.70580828
      1.81000000	     -4.85810452	      5.86383687	     -6.72756345	      0.09734471	      0.95393639	      0.00978583	     -1.05185945	    -13.10567246	     -3.66117466	    -33.92247379	     -1.54111974	      0.00000000	      0.00000000	     13.90769089	      3.50081558	    -10.87968594	     -4.66945409	     -0.70440109	      0.00000000	      0.00000000	      1.22150891	     -8.09971435	      4.54146287
      1.82000000	     -4.66531957	      5.84160206	     -6.96849936	      0.09775567	      0.95500347	      0.00736985	     -0.02212113	    -13.43890409	     -3.25746266	    -36.37050725	     -2.99742286	      0.00000000	      0.00000000	     13.26083750	      3.70213815	    -11.18819560	     -4.83751652	     -0.18999908	      0.00000000	      0.00000000	      0.99823468	     -8.01995745	      4.29253190
      1.83000000	     -4.40227053	      5.65001506	     -7.05099835	      0.09801740	      0.95607908	      0.00497119	      0.88320295	    -13.56392120	     -3.04526403	    -38.79330792	     -4.10300338	      0.00000000	      0.00000000	     12.47727369	      3.76446098	    -11.24996340	     -4.86327292	      0.12601283	      0.00000000	      0.00000000	      0.63393556	     -7.77401885	      3.81719189
      1.84000000	     -4.21988128	      5.67560218	     -7.47545749	      0.09806179	      0.95684974	      0.00300150	      2.14576828	    -13.87471451	     -2.34341340	    -41.34228788	     -5.35063821	      0.00000000	      0.00000000	     11.79841489	      3.97390493	    -11.64446127	     -4.90721200	      0.72584757	      0.00000000	      0.00000000	      0.44127375	     -7.74962335	      3.68590808
      1.85000000	     -4.19275152	      5.60813176	     -7.86279688	      0.09788921	      0.95729677	      0.00122138	      3.60674274	    -14.02342613	     -1.74143707	    -43.92680361	     -5.95637821	      0.00000000	      0.00000000	     11.25774080	      4.06773680	    -12.11418227	     -4.84568416	      1.08684495	      0.00000000	      0.00000000	      0.39931978	     -7.61209846	      3.48827046
      1.86000000	     -3.96987190	      5.40774446	     -8.02166744	      0.09768570	      0.95803746	     -0.00074698	      4.65847556	    -14.02313461	     -1.41036308	    -46.18287075	     -6.42518099	      0.00000000	      0.00000000	     10.45709889	      4.09852998	    -12.11765711	     -4.69726588	      1.44864836	      0.00000000	      0.00000000	      0.07552739	     -7.35797185	      2.97071064
      1.87000000	     -3.80740038	      5.29360649	     -8.32404208	      0.09736498	      0.95858670	     -0.00223419	      5.87357608	    -14.02833957	     -0.87235444	    -48.43862620	     -6.55519119	      0.00000000	      0.00000000	      9.71063808	      4.16244665	    -12.26021296	     -4.52165341	      1.87498279	      0.00000000	      0.00000000	     -0.12860500	     -7.23723208	      2.62034929
      1.88000000	     -3.72324972	      5.18651497	     -8.61920489	      0.09688176	      0.95901437	     -0.00364656	      7.15999360	    -14.00070929	     -0.40299771	    -50.53590141	     -6.32135814	      0.00000000	      0.00000000	      9.05834422	      4.22943408	    -12.48723948	     -4.32665283	      2.21526578	      0.00000000	      0.00000000	     -0.24237560	     -7.10606954	      2.26142833
      1.89000000	     -3.54904004	      4.91033059	     -8.62290776	      0.09639662	      0.95976135	     -0.00518999	      8.09087196	    -13.80209337	     -0.32007617	    -52.19379182	     -6.30269284	      0.00000000	      0.00000000	      8.30679868	      4.16484456	    -12.47645180	     -4.14423843	      2.38570753	      0.00000000	      0.00000000	     -0.52484719	     -6.83356972	      1.53982662
      1.90000000	     -3.48767851	      4.83125967	     -9.01314535	      0.09570390	      0.96014439	     -0.00630185	      9.38508895	    -13.67636902	      0.29852435	    -53.95487443	     -5.31312970	      0.00000000	      0.00000000	      7.65710356	      4.22973775	    -12.45106501	     -3.92055918	      2.79747497	      0.00000000	      0.00000000	     -0.58248574	     -6.74076629	      1.32217757
